<svg width="50" height="50" viewBox="0 0 50 50" fill="none" xmlns="http://www.w3.org/2000/svg">
<path d="M24.5402 11.082L24.5319 11.0744L24.5232 11.0671C24.2517 10.839 23.9803 10.6095 23.7083 10.3795C20.628 7.7743 17.4672 5.101 13.0044 3.62644C16.6057 1.68385 20.651 0.5 24.9267 0.5C26.026 0.5 27.0917 0.500568 28.1528 0.618676C30.8142 3.73331 33.0556 7.39857 34.6048 11.3391C35.3818 13.4145 35.9265 15.6167 36.3438 17.8406C31.5116 17.2271 28.0132 14.2771 24.5402 11.082ZM38.2894 40.0461L38.2895 40.0461L38.2928 40.0376C39.2586 37.5499 39.9654 34.9354 40.4124 32.1937C42.1181 32.6398 43.2768 33.8256 44.0638 35.132C44.8497 36.4365 45.2387 37.8217 45.4076 38.5869C44.4479 39.9467 43.4862 41.1766 42.3939 42.4068C40.0601 44.6144 37.3125 46.4958 34.337 47.6972C35.8662 45.3604 37.1823 42.751 38.2894 40.0461ZM21.8475 36.0005L21.8437 36.0038L21.8406 36.0066C18.11 39.3065 14.3549 42.6282 8.71372 43.3901L7.58988 42.3911C3.60139 38.3975 1.07614 32.9303 0.541644 27.0233H36.9996L36.9237 28.0851C30.3302 28.6441 26.2719 32.1636 22.1243 35.7606C22.0321 35.8405 21.9398 35.9205 21.8475 36.0005ZM36.9996 22.9783H0.541677C1.07596 17.0828 3.59917 11.7512 7.58985 7.75726L8.71379 6.7582C14.3612 7.51736 18.1208 10.7064 21.8437 13.9995L21.8437 13.9995L21.8475 14.0028C21.9377 14.081 22.0278 14.1592 22.118 14.2374C26.2664 17.8363 30.327 21.359 36.9239 21.9183L36.9996 22.9783ZM38.2926 9.96368L38.2927 9.96365L38.2894 9.9556C37.1918 7.2739 35.8878 4.68634 34.3761 2.36526C37.348 3.63244 40.0801 5.40664 42.3939 7.59492C43.4873 8.82624 44.4497 10.0574 45.4104 11.4187C45.2445 12.2305 44.8567 13.6245 44.0658 14.9218C43.2815 16.2083 42.1234 17.3668 40.4125 17.8087C39.9658 15.0654 39.2604 12.4505 38.2926 9.96368ZM24.5336 38.927C28.008 35.8697 31.507 32.921 36.3424 32.1794C35.9267 34.3977 35.3825 36.5942 34.6058 38.6644C33.0564 42.7474 30.8163 46.411 28.1608 49.3823C27.0976 49.5011 26.0299 49.5017 24.9283 49.5017C20.634 49.5017 16.4692 48.4297 12.9736 46.4057C17.7211 44.9217 21.1536 41.9013 24.5006 38.9561L24.5336 38.927ZM40.8194 28.2735L40.9028 27.0233H49.4697C49.3004 29.4281 48.758 31.738 47.8403 33.9552C46.6851 31.4972 44.56 28.9457 40.8194 28.2735ZM40.9005 22.98L40.8205 21.8604C44.5602 21.0732 46.6849 18.5131 47.8404 16.1455C48.7558 18.2699 49.3001 20.5728 49.4697 22.98H40.9005Z" fill="white" stroke="black"/>
</svg>
