<svg width="657" height="95" viewBox="0 0 657 95" fill="none" xmlns="http://www.w3.org/2000/svg">
<path d="M11.745 93V21.96H7.905V93H0.225V14.28H39.649C48.737 14.28 56.033 21.064 56.033 29.384C56.033 37.704 48.737 44.36 39.649 44.36H19.425V48.2H39.649C50.785 48.2 59.873 39.752 59.873 29.384C59.873 19.016 50.785 10.44 39.649 10.44H0.225V2.75999H39.649C55.009 2.75999 67.553 14.792 67.553 29.384C67.553 34.888 65.761 39.88 62.817 44.104C67.937 49.48 71.393 56.904 71.393 65.224C71.393 80.584 58.849 93 43.489 93H11.745ZM52.193 65.224C52.193 60.232 49.121 56.264 45.025 55.368C43.361 55.752 41.441 55.88 39.649 55.88H19.425V73.8H43.489C48.353 73.8 52.193 70.088 52.193 65.224ZM39.649 21.96H19.425V36.68H39.649C44.513 36.68 48.353 33.48 48.353 29.384C48.353 25.288 44.513 21.96 39.649 21.96ZM63.713 65.224C63.713 59.08 61.281 53.576 57.569 49.608C56.545 50.504 55.393 51.272 54.241 51.912C57.697 55.112 59.873 59.848 59.873 65.224C59.873 74.312 52.577 81.48 43.489 81.48H19.425V85.32H43.489C54.625 85.32 63.713 76.36 63.713 65.224ZM94.745 93V2.75999H102.425V73.8H140.825V81.48H102.425V85.32H140.825V93H94.745ZM83.225 93V2.75999H90.905V93H83.225ZM155.303 93L186.791 2.75999H196.903L228.519 93H220.327L191.783 11.592L189.735 17.608L216.103 93H207.911L201.255 73.8H170.023L163.367 93H155.303ZM143.015 93L174.503 2.75999H182.695L151.079 93H143.015ZM185.767 28.872L176.807 54.6H194.599L185.767 28.872ZM174.119 62.28L172.711 66.12H198.567L197.287 62.28H174.119ZM312.974 13L307.086 17.992C300.174 12.104 291.214 8.52 281.486 8.52C259.726 8.52 242.19 26.184 242.19 47.944C242.19 69.704 259.726 87.24 281.486 87.24C292.494 87.24 302.35 82.76 309.518 75.592L315.79 80.072C307.214 89.16 295.054 94.92 281.486 94.92C255.502 94.92 234.51 73.928 234.51 47.944C234.51 21.96 255.502 0.839996 281.486 0.839996C293.646 0.839996 304.526 5.448 312.974 13ZM303.886 20.424L297.742 25.288C293.134 21.96 287.502 20.04 281.358 20.04C265.998 20.04 253.582 32.584 253.582 47.944C253.582 63.304 265.998 75.72 281.358 75.72C288.398 75.72 294.926 73.16 299.79 68.808L306.318 73.416C299.918 79.56 291.086 83.4 281.486 83.4C261.902 83.4 246.03 67.528 246.03 47.944C246.03 28.36 261.902 12.36 281.486 12.36C289.934 12.36 297.742 15.432 303.886 20.424ZM398.935 2.75999L358.231 45.256L403.415 93H392.663L345.175 42.44V48.456L387.159 93H376.663L345.175 59.464V93H337.495V2.75999H345.175V31.304L372.567 2.75999H383.063L350.295 36.808L352.983 39.624L388.439 2.75999H398.935ZM325.975 93V2.75999H333.655V93H325.975ZM403.045 21.96V14.28H472.165V21.96H447.205V93H439.525V21.96H435.685V93H428.005V21.96H403.045ZM403.045 10.44V2.75999H472.165V10.44H403.045ZM480.385 47.944C480.385 21.96 501.377 0.839996 527.361 0.839996C553.345 0.839996 574.465 21.96 574.465 47.944C574.465 73.928 553.345 94.92 527.361 94.92C501.377 94.92 480.385 73.928 480.385 47.944ZM488.065 47.944C488.065 69.704 505.601 87.24 527.361 87.24C549.121 87.24 566.785 69.704 566.785 47.944C566.785 26.184 549.121 8.52 527.361 8.52C505.601 8.52 488.065 26.184 488.065 47.944ZM491.905 47.944C491.905 28.36 507.777 12.36 527.361 12.36C546.945 12.36 562.945 28.36 562.945 47.944C562.945 67.528 546.945 83.4 527.361 83.4C507.777 83.4 491.905 67.528 491.905 47.944ZM499.457 47.944C499.457 63.304 511.873 75.72 527.233 75.72C542.593 75.72 555.137 63.304 555.137 47.944C555.137 32.584 542.593 20.04 527.233 20.04C511.873 20.04 499.457 32.584 499.457 47.944ZM589.35 14.28H628.774C637.862 14.28 645.158 21.576 645.158 30.664C645.158 39.752 637.862 46.92 628.774 46.92H608.55V50.76H628.774C639.91 50.76 648.998 41.8 648.998 30.664C648.998 19.528 639.91 10.44 628.774 10.44H589.35V2.75999H628.774C644.134 2.75999 656.678 15.304 656.678 30.664C656.678 46.024 644.134 58.44 628.774 58.44H608.55V93H600.87V21.96H597.03V93H589.35V14.28ZM628.774 21.96H608.55V39.24H628.774C633.638 39.24 637.478 35.528 637.478 30.664C637.478 25.8 633.638 21.96 628.774 21.96Z" fill="white"/>
</svg>
