<svg width="279" height="77" viewBox="0 0 279 77" fill="none" xmlns="http://www.w3.org/2000/svg">
<path d="M9.80047 77V17.06H6.56047V77H0.0804691V10.58H33.3445C41.0125 10.58 47.1685 16.304 47.1685 23.324C47.1685 30.344 41.0125 35.96 33.3445 35.96H16.2805V39.2H33.3445C42.7405 39.2 50.4085 32.072 50.4085 23.324C50.4085 14.576 42.7405 7.34 33.3445 7.34H0.0804691V0.859995H33.3445C46.3045 0.859995 56.8885 11.012 56.8885 23.324C56.8885 27.968 55.3765 32.18 52.8925 35.744C57.2125 40.28 60.1285 46.544 60.1285 53.564C60.1285 66.524 49.5445 77 36.5845 77H9.80047ZM43.9285 53.564C43.9285 49.352 41.3365 46.004 37.8805 45.248C36.4765 45.572 34.8565 45.68 33.3445 45.68H16.2805V60.8H36.5845C40.6885 60.8 43.9285 57.668 43.9285 53.564ZM33.3445 17.06H16.2805V29.48H33.3445C37.4485 29.48 40.6885 26.78 40.6885 23.324C40.6885 19.868 37.4485 17.06 33.3445 17.06ZM53.6485 53.564C53.6485 48.38 51.5965 43.736 48.4645 40.388C47.6005 41.144 46.6285 41.792 45.6565 42.332C48.5725 45.032 50.4085 49.028 50.4085 53.564C50.4085 61.232 44.2525 67.28 36.5845 67.28H16.2805V70.52H36.5845C45.9805 70.52 53.6485 62.96 53.6485 53.564ZM79.8317 77V0.859995H86.3117V60.8H118.712V67.28H86.3117V70.52H118.712V77H79.8317ZM70.1117 77V0.859995H76.5917V77H70.1117ZM137.84 77V0.859995H144.32V77H137.84ZM128.12 77V0.859995H134.6V77H128.12ZM153.597 17.06V10.58H211.917V17.06H190.857V77H184.377V17.06H181.137V77H174.657V17.06H153.597ZM153.597 7.34V0.859995H211.917V7.34H153.597ZM218.852 17.06V10.58H277.172V15.44L238.508 60.8H278.792V67.28H217.232V60.8L254.384 17.06H218.852ZM217.232 77V70.52H278.792V77H217.232ZM218.852 7.34V0.859995H277.172V7.34H218.852ZM225.656 60.8H229.976L267.236 17.06H262.916L225.656 60.8Z" fill="white"/>
</svg>
