<svg width="141" height="70" viewBox="0 0 141 70" fill="none" xmlns="http://www.w3.org/2000/svg">
<path fill-rule="evenodd" clip-rule="evenodd" d="M45.0717 21.16C43.4767 17.1017 41.1583 13.3333 38.405 10.145C37.245 10 36.0867 10 34.9267 10C30.1433 10 25.6517 11.45 21.7383 13.7683C27.1 15.2183 30.5783 18.4067 34.2017 21.45C37.825 24.7833 41.5933 27.9717 46.955 28.4067C46.52 25.9433 45.94 23.4783 45.0717 21.16ZM50 41.595C49.565 44.4933 48.84 47.2467 47.8267 49.8567C46.5217 53.045 44.9283 56.0883 43.0433 58.6967C46.6667 57.5367 50 55.3633 52.7533 52.755C53.9133 51.45 54.9267 50.1467 55.9417 48.6967C55.6517 47.2467 54.3467 42.32 50 41.595ZM46.9567 41.595C41.595 42.175 37.8267 45.3633 34.2033 48.5517C30.58 51.74 26.9567 54.9283 21.74 56.2333C25.5083 58.6967 30.145 60.0017 34.9283 60.0017C36.0883 60.0017 37.2467 60.0017 38.4067 59.8567C41.16 56.8133 43.4783 53.045 45.0733 48.8417C45.9433 46.5233 46.5233 44.0583 46.9567 41.595ZM47.3917 38.5517L47.5367 36.5233H10C10.435 42.755 13.0433 48.5517 17.2467 52.755L18.5517 53.915C24.4933 53.19 28.4067 49.7117 32.175 46.3783C36.5233 42.61 40.58 38.9867 47.3917 38.5517ZM60 36.5233H50.435L50.29 38.6967C54.6383 39.2767 56.8117 42.465 57.8267 45.2183C59.1317 42.465 59.855 39.5667 60 36.5233ZM47.3917 31.4517C40.58 31.0167 36.5217 27.3933 32.175 23.625C28.4067 20.2917 24.4933 16.9583 18.5517 16.2333L17.2467 17.3933C13.0433 21.595 10.435 27.2467 10 33.4783H47.5367L47.3917 31.45V31.4517ZM57.8267 24.93C56.8117 27.5383 54.6383 30.7267 50.29 31.4517L50.435 33.48H60C59.855 30.4367 59.13 27.5383 57.8267 24.93ZM43.0433 11.305C44.9267 13.9133 46.5217 16.9567 47.8267 20.145C48.8417 22.7533 49.565 25.5067 50 28.4067C54.3483 27.6817 55.6517 22.9 55.9417 21.305C54.9267 19.855 53.9133 18.5517 52.7533 17.2467C50 14.6383 46.6667 12.6083 43.0433 11.305Z" fill="white"/>
<path d="M81.795 55.0008V28.3608H80.355V55.0008H77.475V25.4808H92.259C95.667 25.4808 98.403 28.0248 98.403 31.1448C98.403 34.2648 95.667 36.7608 92.259 36.7608H84.675V38.2008H92.259C96.435 38.2008 99.843 35.0328 99.843 31.1448C99.843 27.2568 96.435 24.0408 92.259 24.0408H77.475V21.1608H92.259C98.019 21.1608 102.723 25.6728 102.723 31.1448C102.723 33.2088 102.051 35.0808 100.947 36.6648C102.867 38.6808 104.163 41.4648 104.163 44.5848C104.163 50.3448 99.459 55.0008 93.699 55.0008H81.795ZM96.963 44.5848C96.963 42.7128 95.811 41.2248 94.275 40.8888C93.651 41.0328 92.931 41.0808 92.259 41.0808H84.675V47.8008H93.699C95.523 47.8008 96.963 46.4088 96.963 44.5848ZM92.259 28.3608H84.675V33.8808H92.259C94.083 33.8808 95.523 32.6808 95.523 31.1448C95.523 29.6088 94.083 28.3608 92.259 28.3608ZM101.283 44.5848C101.283 42.2808 100.371 40.2168 98.979 38.7288C98.595 39.0648 98.163 39.3528 97.731 39.5928C99.027 40.7928 99.843 42.5688 99.843 44.5848C99.843 47.9928 97.107 50.6808 93.699 50.6808H84.675V52.1208H93.699C97.875 52.1208 101.283 48.7608 101.283 44.5848ZM112.92 55.0008V28.3608H111.48V55.0008H108.6V25.4808H123.384C126.792 25.4808 129.528 28.0248 129.528 31.1448C129.528 34.2648 126.792 36.7608 123.384 36.7608H115.8V38.2008H123.384C127.56 38.2008 130.968 35.0328 130.968 31.1448C130.968 27.2568 127.56 24.0408 123.384 24.0408H108.6V21.1608H123.384C129.144 21.1608 133.848 25.6728 133.848 31.1448C133.848 33.2088 133.176 35.0808 132.072 36.6648C133.992 38.6808 135.288 41.4648 135.288 44.5848C135.288 50.3448 130.584 55.0008 124.824 55.0008H112.92ZM128.088 44.5848C128.088 42.7128 126.936 41.2248 125.4 40.8888C124.776 41.0328 124.056 41.0808 123.384 41.0808H115.8V47.8008H124.824C126.648 47.8008 128.088 46.4088 128.088 44.5848ZM123.384 28.3608H115.8V33.8808H123.384C125.208 33.8808 126.648 32.6808 126.648 31.1448C126.648 29.6088 125.208 28.3608 123.384 28.3608ZM132.408 44.5848C132.408 42.2808 131.496 40.2168 130.104 38.7288C129.72 39.0648 129.288 39.3528 128.856 39.5928C130.152 40.7928 130.968 42.5688 130.968 44.5848C130.968 47.9928 128.232 50.6808 124.824 50.6808H115.8V52.1208H124.824C129 52.1208 132.408 48.7608 132.408 44.5848Z" fill="white"/>
</svg>
